<svg id="svg-animation" class="block-header__picture finished" xmlns="http://www.w3.org/2000/svg" width="723" height="631" viewBox="0 0 723 631" style="opacity: 1;"><g fill="none" fill-rule="evenodd"><path class="svg-layer" fill="#F8EC17" d="M473.4 177.2a22.18 22.18 0 0 0-16.28-6.7h-180.9a22.17 22.17 0 0 0-16.29 6.7 22.24 22.24 0 0 0-6.7 16.3v354.97c0 6.34 2.22 11.81 6.7 16.3 4.48 4.47 9.9 6.7 16.3 6.7h180.89c6.39 0 11.8-2.23 16.29-6.7a22.24 22.24 0 0 0 6.7-16.3V193.5c0-6.4-2.24-11.83-6.7-16.3m-46.92 286.58H306.85a10.12 10.12 0 0 1 0-20.24H426.5a10.12 10.12 0 0 1 0 20.24m0-45.47H306.85a10.12 10.12 0 0 1 0-20.24H426.5a10.12 10.12 0 0 1 0 20.24m0-45.48H306.85a10.12 10.12 0 0 1 0-20.24H426.5a10.12 10.12 0 0 1 0 20.24m0-45.47H306.85a10.12 10.12 0 0 1 0-20.24H426.5a10.12 10.12 0 0 1 0 20.24m0-45.47H306.85a10.12 10.12 0 0 1 0-20.24H426.5a10.12 10.12 0 0 1 0 20.24m0-45.47H306.85a10.12 10.12 0 0 1 0-20.24H426.5a10.12 10.12 0 0 1 0 20.24" style="stroke-dasharray: 3034, 3036; stroke-dashoffset: 0px;"></path><path stroke="#045462" stroke-linecap="round" stroke-linejoin="round" stroke-width="5.5" d="M181.94 313.73h21.71M203.65 351.68h-21.71M203.65 427.25h-21.71M181.94 389.46h21.71M203.65 275.77h-21.71M387.82 427.25H285.94M285.94 389.46h101.88M387.58 351.68H285.94M285.94 313.73h101.64" style="stroke-dasharray: 516, 518; stroke-dashoffset: 0px;"></path><g stroke="#045462" stroke-linecap="round" stroke-linejoin="round" stroke-width="5.5"><path d="M401.7 530.23h12.24a19 19 0 0 0 13.88-5.67 18.72 18.72 0 0 0 5.71-13.79V475.9M240.22 475.9v34.87c0 5.41 1.9 10.01 5.72 13.79a18.98 18.98 0 0 0 13.88 5.67h12.24" style="stroke-dasharray: 156, 158; stroke-dashoffset: 0px;"></path></g><path stroke="#045462" stroke-linecap="round" stroke-linejoin="round" stroke-width="5.5" d="M401.7 548.88v-18.65H272.06v18.65M136.22 475.9v34.87c0 5.41 1.91 10.01 5.72 13.79a18.98 18.98 0 0 0 13.88 5.67h12.24M203.65 530.23h-35.59v18.65M203.65 237.82h-47.84a18.94 18.94 0 0 0-13.87 5.68 18.72 18.72 0 0 0-5.72 13.29V475.9h67.43M387.58 275.77H285.94M387.58 237.82H285.94M240.22 208.63V475.9h193.31V208.63c0-5.4-1.9-10.01-5.7-13.8a18.96 18.96 0 0 0-13.89-5.66H259.82a18.95 18.95 0 0 0-13.88 5.67 18.76 18.76 0 0 0-5.72 13.79zM505.69 530.23H470.1M537.54 475.9H470.1M470.1 351.68h21.72M491.82 313.73h-21.71M491.82 389.46h-21.71M470.1 427.25h21.72M470.1 237.82h47.84a18.9 18.9 0 0 1 13.87 5.68c3.7 3.65 5.6 8.1 5.73 13.29V510.77a18.7 18.7 0 0 1-5.73 13.79 18.95 18.95 0 0 1-13.87 5.67H505.7v18.65M470.1 275.77h21.72" style="stroke-dasharray: 2416, 2418; stroke-dashoffset: 0px;"></path><path stroke="#045462" stroke-linecap="round" stroke-linejoin="round" stroke-width="2" d="M1 251.24L333.57 1 541.9 157.68M58.8 256.63v318.63a6.96 6.96 0 0 0 2.23 5.12 7.36 7.36 0 0 0 5.3 2.23h65.36" style="stroke-dasharray: 1073, 1075; stroke-dashoffset: 0px;"></path><path class="svg-layer" fill="#F8EC17" d="M697.45 136.52a.97.97 0 0 0-.7-.77l-46.9-12.67a1.2 1.2 0 0 0-.5 0 .97.97 0 0 0-.76.81l-6.27 48.22a.96.96 0 0 0 1.5.93l16.04-10.7c5.7 8.95 8.29 17.82 7.68 26.4-.65 9.07-5.73 23.52-5.79 23.67a.97.97 0 0 0 1.48 1.1c10.24-7.43 17.36-15.7 21.16-24.59a51.92 51.92 0 0 0 1.67-4.63c3.34-11.1 1.89-23.4-4.32-36.57l15.3-10.24a.97.97 0 0 0 .4-.96" style="stroke-dasharray: 272, 274; stroke-dashoffset: 0px;"></path><path stroke="#045462" stroke-linecap="round" stroke-linejoin="round" stroke-width="2" d="M668 230.35c4.58 2.76 8.09 7 10.5 12.73l-10.63 4.42 24.76 12.26.02-.02 8.82-26.16-10.1 4.17c-4.25-7.23-9.54-11.82-15.86-13.75a21.88 21.88 0 0 0-2.66-.66c-5.32-1-11.32-.26-18 2.2M634.9 218.95c-4.6-2.76-8.1-7-10.5-12.73l10.63-4.42-24.77-12.26-.02.02-8.82 26.16 10.1-4.17c4.26 7.23 9.54 11.82 15.86 13.75a22.2 22.2 0 0 0 2.66.66c5.32 1 11.32.26 18-2.21M660.7 192.41c.52-11.07-2.76-21.97-9.85-32.72l-19.83 13.22 7.38-56.72h.05l55.17 14.9-18.8 12.59c7.56 15.63 9.38 30 5.44 43.1a61.2 61.2 0 0 1-1.93 5.34c-4.4 10.3-12.57 19.78-24.5 28.44" style="stroke-dasharray: 558, 560; stroke-dashoffset: 0px;"></path><path class="svg-layer" fill="#F8EC17" d="M643.58 553.16c-7.67-10.12-13.5-18.24-17.48-24.37a29.91 29.91 0 0 1-4.86-16.66c0-7.98 2.81-14.79 8.45-20.43a27.83 27.83 0 0 1 20.35-8.44 27.84 27.84 0 0 1 20.35 8.44 27.82 27.82 0 0 1 8.45 20.43c0 6.1-1.64 11.65-4.9 16.66-3.43 5.3-9.27 13.38-17.51 24.26" style="stroke-dasharray: 186, 188; stroke-dashoffset: 0px;"></path><path class="svg-layer" fill="#F8EC17" d="M656.43 553.05c-1.99 2.62-4.12 5.4-6.39 8.36a258.76 258.76 0 0 1-6.46-8.25" style="stroke-dasharray: 22, 24; stroke-dashoffset: 0px;"></path><path stroke="#045462" stroke-linecap="round" stroke-linejoin="round" stroke-width="2" d="M651.45 436.9a69.95 69.95 0 0 0 69.86-69.86 69.95 69.95 0 0 0-69.86-69.87 69.95 69.95 0 0 0-69.87 69.87 69.95 69.95 0 0 0 69.87 69.86z" style="stroke-dasharray: 439, 441; stroke-dashoffset: 0px;"></path><path class="svg-layer" fill="#F8EC17" d="M689.86 343.19a.73.73 0 0 0-.62-.69 64.91 64.91 0 0 1-33.14-14.61.72.72 0 0 0-.93 0 64.97 64.97 0 0 1-33.15 14.61.73.73 0 0 0-.63.7 82.54 82.54 0 0 0-.06 3.23c0 19.24 6.9 35.9 20.5 49.5a73.36 73.36 0 0 0 13.43 10.66.72.72 0 0 0 .75 0 73.44 73.44 0 0 0 13.43-10.66c13.6-13.6 20.5-30.26 20.5-49.5 0-1.1-.03-2.17-.08-3.24" style="stroke-dasharray: 229, 231; stroke-dashoffset: 0px;"></path><path stroke="#045462" stroke-linecap="round" stroke-linejoin="round" stroke-width="2" d="M607.48 338.4a85.76 85.76 0 0 0 43.97-19.38 85.7 85.7 0 0 0 43.95 19.39c.06 1.38.1 2.79.1 4.2 0 25.1-8.88 46.52-26.62 64.27a94.86 94.86 0 0 1-17.43 13.84A94.85 94.85 0 0 1 634 406.88c-17.74-17.75-26.61-39.18-26.61-64.27 0-1.41.02-2.82.08-4.2zM620.01 599.53a69.13 69.13 0 0 0 31.44 7.45 69.95 69.95 0 0 0 69.86-69.86 69.95 69.95 0 0 0-69.86-69.87 69.95 69.95 0 0 0-69.87 69.87 69.9 69.9 0 0 0 8.75 33.88M707.66 238.45a69.3 69.3 0 0 0 13.65-41.5c0-17.06-6.22-33.5-17.52-46.27M619.72 134.7a69.62 69.62 0 0 0-38.14 62.26 69.94 69.94 0 0 0 91.4 66.48" style="stroke-dasharray: 995, 997; stroke-dashoffset: 0px;"></path><path class="svg-layer-last" stroke="#F8EC17" stroke-linecap="round" stroke-linejoin="round" stroke-width="3" d="M437.9 614.18H74.3M428.12 628.58l14.4-14.4-14.4-14.4M30.04 453.5v125.97M44.43 467.9l-14.4-14.4-14.4 14.4" style="stroke-dasharray: 572, 574; stroke-dashoffset: 0px;"></path><g stroke="#045462" stroke-linecap="round" stroke-linejoin="round" stroke-width="2"><path d="M646.12 550.63l-5.74 7.52a228 228 0 0 1-4.22-5.33l-1.6-2.1M669.57 576.1a4.83 4.83 0 0 1-.43-2.02c0-1.78.91-3.34 2.74-4.69M627.47 513.7c0-3.57 1.26-6.6 3.78-9.13a12.4 12.4 0 0 1 9.13-3.75c3.55 0 6.59 1.24 9.1 3.75a12.45 12.45 0 0 1 3.8 9.13c0 3.56-1.27 6.6-3.8 9.12a12.38 12.38 0 0 1-9.1 3.77c-3.57 0-6.61-1.25-9.13-3.77a12.45 12.45 0 0 1-3.78-9.12z" style="stroke-dasharray: 108, 110; stroke-dashoffset: 0px;"></path><path d="M651.81 561.85c-.5.43-1.1.84-1.78 1.23-2.62 1.5-5.8 2.26-9.51 2.26-3.72 0-6.9-.75-9.54-2.26-2.62-1.5-3.93-3.3-3.93-5.43 0-2.12 1.31-3.94 3.93-5.45 1.1-.63 2.3-1.12 3.59-1.47-6.9-9.1-12.14-16.4-15.72-21.9a26.9 26.9 0 0 1-4.37-14.99c0-7.17 2.53-13.3 7.6-18.36a25.01 25.01 0 0 1 18.3-7.6 25.02 25.02 0 0 1 18.3 7.6 25.02 25.02 0 0 1 7.59 18.36c-.01 5.49-1.48 10.48-4.4 14.98-3.1 4.76-8.34 12.03-15.75 21.81a16 16 0 0 1 3.9 1.57c2.64 1.5 3.96 3.33 3.96 5.45 0 1.58-.72 2.98-2.17 4.2l20.07 7.55c.36-.27.75-.52 1.18-.77 2.64-1.5 5.82-2.24 9.54-2.24 3.72 0 6.9.75 9.51 2.24 2.64 1.5 3.95 3.33 3.95 5.46 0 2.12-1.31 3.93-3.95 5.42-2.62 1.5-5.79 2.27-9.51 2.27-3.72 0-6.9-.76-9.54-2.27-1.75-1-2.92-2.14-3.5-3.41l-58.95 11.45a4.96 4.96 0 0 1 1.06 3.06c0 2.13-1.31 3.94-3.95 5.43-2.62 1.5-5.79 2.26-9.5 2.26-3.73 0-6.91-.75-9.55-2.26-2.61-1.5-3.92-3.3-3.92-5.43 0-2.12 1.3-3.94 3.92-5.45 2.64-1.5 5.82-2.24 9.54-2.24 3.72 0 6.9.75 9.51 2.24a9.46 9.46 0 0 1 2.89 2.39" style="stroke-dasharray: 433, 435; stroke-dashoffset: 0px;"></path><path d="M646.12 550.63l-5.74 7.52a228 228 0 0 1-4.22-5.33l-1.6-2.1M669.57 576.1a4.83 4.83 0 0 1-.43-2.02c0-1.78.91-3.34 2.74-4.69M627.47 513.7c0-3.57 1.26-6.6 3.78-9.13a12.4 12.4 0 0 1 9.13-3.75c3.55 0 6.59 1.24 9.1 3.75a12.45 12.45 0 0 1 3.8 9.13c0 3.56-1.27 6.6-3.8 9.12a12.38 12.38 0 0 1-9.1 3.77c-3.57 0-6.61-1.25-9.13-3.77a12.45 12.45 0 0 1-3.78-9.12z" style="stroke-dasharray: 108, 110; stroke-dashoffset: 0px;"></path><path d="M651.81 561.85c-.5.43-1.1.84-1.78 1.23-2.62 1.5-5.8 2.26-9.51 2.26-3.72 0-6.9-.75-9.54-2.26-2.62-1.5-3.93-3.3-3.93-5.43 0-2.12 1.31-3.94 3.93-5.45 1.1-.63 2.3-1.12 3.59-1.47-6.9-9.1-12.14-16.4-15.72-21.9a26.9 26.9 0 0 1-4.37-14.99c0-7.17 2.53-13.3 7.6-18.36a25.01 25.01 0 0 1 18.3-7.6 25.02 25.02 0 0 1 18.3 7.6 25.02 25.02 0 0 1 7.59 18.36c-.01 5.49-1.48 10.48-4.4 14.98-3.1 4.76-8.34 12.03-15.75 21.81a16 16 0 0 1 3.9 1.57c2.64 1.5 3.96 3.33 3.96 5.45 0 1.58-.72 2.98-2.17 4.2l20.07 7.55c.36-.27.75-.52 1.18-.77 2.64-1.5 5.82-2.24 9.54-2.24 3.72 0 6.9.75 9.51 2.24 2.64 1.5 3.95 3.33 3.95 5.46 0 2.12-1.31 3.93-3.95 5.42-2.62 1.5-5.79 2.27-9.51 2.27-3.72 0-6.9-.76-9.54-2.27-1.75-1-2.92-2.14-3.5-3.41l-58.95 11.45a4.96 4.96 0 0 1 1.06 3.06c0 2.13-1.31 3.94-3.95 5.43-2.62 1.5-5.79 2.26-9.5 2.26-3.73 0-6.91-.75-9.55-2.26-2.61-1.5-3.92-3.3-3.92-5.43 0-2.12 1.3-3.94 3.92-5.45 2.64-1.5 5.82-2.24 9.54-2.24 3.72 0 6.9.75 9.51 2.24a9.46 9.46 0 0 1 2.89 2.39" style="stroke-dasharray: 433, 435; stroke-dashoffset: 0px;"></path></g></g></svg>