<svg id="svg-animation" class="block-header__picture finished" xmlns="http://www.w3.org/2000/svg" width="590" height="664" viewBox="0 0 590 664" style="opacity: 1;">
    <g fill="none" fill-rule="evenodd">
        <path stroke="#045462" stroke-linecap="round" stroke-linejoin="round" stroke-width="2" d="M385.23 477.3v-.4a7.6 7.6 0 0 0-2.23-5.39l-.02-.01a7.42 7.42 0 0 0-5.45-2.25h-62.68c-2.13 0-3.94.74-5.45 2.25l-.02.01a7.59 7.59 0 0 0-2.23 5.4v58.47c0 2.13.76 3.95 2.29 5.46l.01.01a7.26 7.26 0 0 0 3.92 2.07h.01a9.98 9.98 0 0 0 1.43.16H385.65c1.96 0 3.85-.69 5.67-2.06l.02-.02c1.8-1.4 2.99-3.07 3.58-5.05v-.01l12.37-42.18c.66-2.23.41-4.14-.73-5.72l-.02-.02c-1.09-1.63-2.73-2.47-4.93-2.52h-28.35l-5.47-7.7a2 2 0 0 0-1.6-.82h-23.7c-2-.04-3.9.64-5.7 2.05l-.02.01a9.69 9.69 0 0 0-3.55 5.01L318.3 534.9" style="stroke-dasharray: 426, 428; stroke-dashoffset: 0px;"></path>
        <path fill="#FEFEFE" class="svg-layer-last" d="M316.6 567.1a26.22 26.22 0 1 0 0-52.45 26.22 26.22 0 0 0 0 52.44" style="stroke-dasharray: 165, 167; stroke-dashoffset: 0px;"></path>
        <path fill="#F8EC17" class="svg-layer" d="M237.2 661.33h91.15c3.07 0 6.03-1.09 8.88-3.24l.02-.03a15.54 15.54 0 0 0 5.62-7.9v-.03l19.39-66.08c1.02-3.5.63-6.49-1.15-8.96l-.03-.03c-1.71-2.55-4.29-3.86-7.73-3.95h-44.42l-8.57-12.06c-.29-.4-.66-.72-1.11-.94a3 3 0 0 0-1.4-.35h-37.12c-3.14-.06-6.11 1-8.94 3.21l-.03.03a15.17 15.17 0 0 0-5.55 7.85s-19.32 66.87-21.55 73.59c-4 11.99.4 18.89 12.54 18.89" style="stroke-dasharray: 422, 424; stroke-dashoffset: 0px;"></path>
        <path class="svg-layer" stroke="#F8EC17" stroke-linecap="round" stroke-linejoin="round" stroke-width="4.582" d="M237.2 661.33h91.15c3.07 0 6.03-1.09 8.88-3.24l.02-.03a15.54 15.54 0 0 0 5.62-7.9v-.03l19.39-66.08c1.02-3.5.63-6.49-1.15-8.96l-.03-.03c-1.71-2.55-4.29-3.86-7.73-3.95h-44.42l-8.57-12.06c-.29-.4-.66-.72-1.11-.94a3 3 0 0 0-1.4-.35h-37.12c-3.14-.06-6.11 1-8.94 3.21l-.03.03a15.17 15.17 0 0 0-5.55 7.85s-19.32 66.87-21.55 73.59c-4 11.99.4 18.89 12.54 18.89z" style="stroke-dasharray: 422, 424; stroke-dashoffset: 0px;"></path>
        <path stroke="#045462" stroke-linecap="round" stroke-linejoin="round" stroke-width="2" d="M187.34 626.31v16.6c0 3.63 1.3 6.73 3.9 9.31l.04.03a12.38 12.38 0 0 0 6.69 3.53h.03a17 17 0 0 0 2.44.28h121.09c3.36 0 6.58-1.18 9.69-3.53l.03-.03a16.96 16.96 0 0 0 6.13-8.62v-.03l21.15-72.1c1.11-3.82.7-7.08-1.25-9.78l-.03-.03c-1.87-2.78-4.68-4.22-8.44-4.31h-48.47L291 544.47a3.38 3.38 0 0 0-1.22-1.03c-.48-.25-1-.38-1.53-.38h-40.5c-3.42-.07-6.67 1.1-9.75 3.5l-.03.03a16.56 16.56 0 0 0-6.06 8.57l-25.5 86.9m55.09-126.28h-36.38m74.76 103.44c-9.05-4.1-16.01-11.3-20.88-21.62l17.28-8.04-41.78-18.53v.03l-12.78 43.82 16.37-7.6c7.54 11.67 16.6 18.9 27.2 21.66a44.89 44.89 0 0 0 4.44.88c9.86 1.41 20.97-.79 33.33-6.6m-35.25-93.37h19.85c3.63-.01 6.73 1.27 9.3 3.84l.04.03a12.97 12.97 0 0 1 3.81 9.22v.69m-46.53-14.07v-43.62h-64.16v29.87l-29.84-.03-.03.03v97.38h20.06m-.31-56.53h16.9m-4 13.6H200m20.87-27.2h-21.06m-19.53-27.28l29.84-29.84M200 583.81h8.94m-9.32-54.37h61.88M510.06 73.17v21.51M528.77 73.17v21.51M547.48 73.17v21.51M566.19 73.17v21.51M547.48 135.53v21.51M566.19 135.53v21.51M547.48 197.9v21.5M566.19 197.9v21.5M443.45 83.93h7.9M465 83.93h7.9M486.54 83.93h7.9" style="stroke-dasharray: 1452, 1454; stroke-dashoffset: 0px;"></path>
        <path stroke="#045462" stroke-linecap="round" stroke-width="5.5" d="M217.13 461.3V429.3a3.96 3.96 0 0 1 3.97-3.97h18.95a7.93 7.93 0 0 0 6.25-12.8c-1.45-1.85-50.24-62.78-51.25-64.11a7.91 7.91 0 0 0-12.67.05c-.99 1.32-49.75 62.2-51.2 64.05a7.92 7.92 0 0 0 6.24 12.81h18.95a3.97 3.97 0 0 1 3.97 3.97v97.2" style="stroke-dasharray: 394, 396; stroke-dashoffset: 0px;"></path>
        <path stroke="#045462" stroke-linecap="round" stroke-linejoin="round" stroke-width="5.5" d="M159.28 62.32A69.88 69.88 0 0 0 99.7 153.7c-2.4-.2-4.8-.32-7.24-.32a89.7 89.7 0 0 0 0 179.42h72.44M339.53 332.8h51.11c57.33 0 103.81-46.48 103.81-103.8 0-49.8-35.05-91.38-81.82-101.47.16-2.55.27-5.12.27-7.72 0-64.65-52.4-117.06-117.06-117.06-55.48 0-101.94 38.6-114.01 90.4" style="stroke-dasharray: 1191, 1193; stroke-dashoffset: 0px;"></path>
        <path class="svg-layer" fill="#F8EC17" d="M308.45 329.02c6.87-.06 10.83-2.75 11.89-8.07a116.3 116.3 0 0 1 3.62-14.03c1.35-4.05 3.88-9.96 7.58-17.73s8.12-16.4 13.25-25.88l.63-.98.69-1.2a69.2 69.2 0 0 0 7.73-20.5 79 79 0 0 0 1.58-15.72v-.34c.01-20.61-7.27-38.2-21.84-52.78a81.59 81.59 0 0 0-8.19-7.2c-12.82-9.78-27.67-14.67-44.55-14.68-16.88.01-31.73 4.9-44.55 14.68a81.37 81.37 0 0 0-8.19 7.2c-14.57 14.57-21.85 32.17-21.84 52.78v.34a78.7 78.7 0 0 0 1.58 15.73 69.2 69.2 0 0 0 7.73 20.48c.23.4.45.81.69 1.2l.64 1a575.84 575.84 0 0 1 13.24 25.87c3.7 7.77 6.23 13.68 7.58 17.73 1.35 4.04 2.56 8.72 3.62 14.03 1.06 5.32 5.02 8.01 11.88 8.07h55.23z" style="stroke-dasharray: 529, 531; stroke-dashoffset: 0px;"></path>
        <path class="svg-layer" stroke="#F8EC17" stroke-width="2" d="M308.45 329.02c6.87-.06 10.83-2.75 11.89-8.07a116.3 116.3 0 0 1 3.62-14.03c1.35-4.05 3.88-9.96 7.58-17.73s8.12-16.4 13.25-25.88l.63-.98.69-1.2a69.2 69.2 0 0 0 7.73-20.5 79 79 0 0 0 1.58-15.72v-.34c.01-20.61-7.27-38.2-21.84-52.78a81.59 81.59 0 0 0-8.19-7.2c-12.82-9.78-27.67-14.67-44.55-14.68-16.88.01-31.73 4.9-44.55 14.68a81.37 81.37 0 0 0-8.19 7.2c-14.57 14.57-21.85 32.17-21.84 52.78v.34a78.7 78.7 0 0 0 1.58 15.73 69.2 69.2 0 0 0 7.73 20.48c.23.4.45.81.69 1.2l.64 1a575.84 575.84 0 0 1 13.24 25.87c3.7 7.77 6.23 13.68 7.58 17.73 1.35 4.04 2.56 8.72 3.62 14.03 1.06 5.32 5.02 8.01 11.88 8.07h55.23z" style="stroke-dasharray: 529, 531; stroke-dashoffset: 0px;"></path>
        <path stroke="#045462" stroke-linecap="round" stroke-linejoin="round" stroke-width="2" d="M162.27 265.08l11.86-6.86M148.38 186.33l13.48 2.35M188.32 117.08l8.8 10.46M263.48 89.75v13.65M364.69 265.08l-11.87-6.86M378.58 186.33l-13.48 2.35" style="stroke-dasharray: 83, 85; stroke-dashoffset: 0px;"></path>
        <g stroke="#045462" stroke-linecap="round" stroke-linejoin="round" stroke-width="2">
            <path d="M245.9 214.81a22.11 22.11 0 0 1-6.69 15.96 21.86 21.86 0 0 1-13.93 6.57M222.67 193.9a22.11 22.11 0 0 1 6.7-15.97 21.87 21.87 0 0 1 13.93-6.57M263.2 245.24l.03-71.6a22.24 22.24 0 0 1-6.74 15.62 21.86 21.86 0 0 1-13.93 6.57" style="stroke-dasharray: 172, 174; stroke-dashoffset: 0px;"></path>
            <path d="M208.04 225.97a23.34 23.34 0 0 0-.83 6.29 22.1 22.1 0 0 0 6.7 16.2 21.98 21.98 0 0 0 16.16 6.66c2.24 0 4.37-.27 6.37-.83v.13c0 3.67 1.31 6.81 3.93 9.42a12.94 12.94 0 0 0 9.47 3.93c3.67 0 6.81-1.31 9.42-3.93a12.85 12.85 0 0 0 3.93-9.42v-9.18h-11.37M263.23 165a16 16 0 0 0-4.88-11.54 16.01 16.01 0 0 0-11.74-4.88 16 16 0 0 0-11.74 4.88 16.1 16.1 0 0 0-4.55 8.23h-.25a22.01 22.01 0 0 0-16.16 6.7 22.01 22.01 0 0 0-6.7 16.16c0 3.09.53 5.95 1.57 8.6a18.28 18.28 0 0 0-5.08 3.64 17.66 17.66 0 0 0-5.38 12.94c.01 5.07 1.8 9.4 5.38 12.98a18.69 18.69 0 0 0 4.34 3.26 22.02 22.02 0 0 1 5.87-9.88c4.2-4.2 9.22-6.42 15.09-6.65M274.64 245.24h-11.37v9.18c0 3.67 1.31 6.81 3.93 9.42a12.84 12.84 0 0 0 9.43 3.93c3.69 0 6.84-1.31 9.47-3.93a12.85 12.85 0 0 0 3.92-9.42v-.13c2 .56 4.13.83 6.37.83 6.33 0 11.72-2.21 16.17-6.66a22.1 22.1 0 0 0 6.7-16.2c0-2.21-.28-4.31-.83-6.29" style="stroke-dasharray: 386, 388; stroke-dashoffset: 0px;"></path>
            <path d="M280.56 214.81a22.1 22.1 0 0 0 6.7 15.96 21.86 21.86 0 0 0 13.93 6.57M303.79 193.9a22.1 22.1 0 0 0-6.7-15.97 21.88 21.88 0 0 0-13.93-6.57" style="stroke-dasharray: 68, 70; stroke-dashoffset: 0px;"></path>
            <path d="M297.46 209.44c5.87.23 10.9 2.45 15.1 6.65 2.9 2.9 4.85 6.19 5.87 9.88 1.55-.84 3-1.92 4.34-3.26a17.73 17.73 0 0 0 5.37-12.98 17.64 17.64 0 0 0-5.37-12.94 18.26 18.26 0 0 0-5.09-3.64 23.23 23.23 0 0 0 1.57-8.6 22 22 0 0 0-6.7-16.17 22.01 22.01 0 0 0-16.16-6.7h-.25a16.12 16.12 0 0 0-4.55-8.22 16 16 0 0 0-11.74-4.88c-4.57 0-8.49 1.63-11.74 4.88a16 16 0 0 0-4.88 11.54v8.64c.17 6.1 2.42 11.3 6.74 15.62a21.86 21.86 0 0 0 13.93 6.57" style="stroke-dasharray: 205, 207; stroke-dashoffset: 0px;"></path>
        </g>
        <path stroke="#045462" stroke-linecap="round" stroke-linejoin="round" stroke-width="5.5" d="M254.22 358.55l18.6-5.33M254.22 342.85l18.6-5.34M230.98 334.56v23.17l18.98 18.97h26.58l19.02-18.97v-23.17M293.5 320.48c7.52-.07 11.86-3.02 13.02-8.85a127.82 127.82 0 0 1 3.97-15.38c1.47-4.44 4.25-10.91 8.3-19.43a630.32 630.32 0 0 1 14.52-28.36l.7-1.07.75-1.32c4-7 6.83-14.49 8.47-22.45a86.57 86.57 0 0 0 1.74-17.24V206c0-22.58-7.97-41.86-23.94-57.83a89.26 89.26 0 0 0-8.97-7.9c-14.05-10.71-30.33-16.07-48.83-16.08-18.5 0-34.77 5.37-48.82 16.08-3.1 2.38-6.1 5.01-8.98 7.9-15.96 15.97-23.94 35.25-23.93 57.83v.38c.02 5.97.6 11.72 1.73 17.24a75.81 75.81 0 0 0 8.48 22.45l.74 1.32.7 1.07a630.51 630.51 0 0 1 14.52 28.36c4.06 8.52 6.83 15 8.3 19.43 1.49 4.44 2.81 9.56 3.98 15.38 1.16 5.83 5.5 8.78 13.02 8.85h60.53z" style="stroke-dasharray: 745, 747; stroke-dashoffset: 0px;"></path>
        <path stroke="#045462" stroke-linecap="round" stroke-linejoin="round" stroke-width="2" d="M338.64 117.08l-8.8 10.46" style="stroke-dasharray: 14, 16; stroke-dashoffset: 0px;"></path>
        <g stroke-linecap="round">
            <path stroke="#045462" stroke-linejoin="round" stroke-width="2" d="M445.44 107.86h134.7c2.45 0 4.53-.85 6.24-2.56a8.49 8.49 0 0 0 2.56-6.24V68.8c0-2.45-.85-4.53-2.56-6.24a8.49 8.49 0 0 0-6.23-2.56H426.24M495.9 170.22h84.25c2.44 0 4.52-.85 6.23-2.56a8.49 8.49 0 0 0 2.56-6.23v-30.28c0-2.45-.85-4.52-2.56-6.23a8.49 8.49 0 0 0-6.23-2.57H446.06M520.11 232.59h60.04c2.44 0 4.52-.86 6.23-2.57a8.49 8.49 0 0 0 2.57-6.23V193.5c0-2.44-.86-4.52-2.57-6.23a8.49 8.49 0 0 0-6.23-2.57h-79.27" style="stroke-dasharray: 821, 823; stroke-dashoffset: 0px;"></path>
            <path class="svg-layer-last" stroke="#F8EC17" stroke-width="3" d="M151.3 26.84a65.8 65.8 0 0 0-18.2-6.21C97.2 13.97 62.68 37.82 56 73.88a66.32 66.32 0 0 0 7.82 45.47" style="stroke-dasharray: 171, 173; stroke-dashoffset: 0px;"></path>
            <path class="svg-layer-last" stroke="#F8EC17" stroke-linejoin="round" stroke-width="3" d="M129.77 38.27l23.14-10.54-10.55-23.12" style="stroke-dasharray: 51, 53; stroke-dashoffset: 0px;"></path>
            <path class="svg-layer-last" stroke="#F8EC17" stroke-width="3" d="M96.57 44.61a47.93 47.93 0 0 0-17.32 64.9M520.5 280.38a82.23 82.23 0 0 1 5.15 23.48c3.18 45.52-31.31 85-77.05 88.2a82.92 82.92 0 0 1-55.37-16.13" style="stroke-dasharray: 288, 290; stroke-dashoffset: 0px;"></path>
        </g>
        <path class="svg-layer-last" stroke="#F8EC17" stroke-linecap="round" stroke-linejoin="round" stroke-width="3" d="M503.27 305.5l16.35-27.25 27.23 16.37" style="stroke-dasharray: 64, 66; stroke-dashoffset: 0px;"></path>
        <path class="svg-layer-last" stroke="#F8EC17" stroke-linecap="round" stroke-width="3" d="M490.69 345.83a59.9 59.9 0 0 1-83.06 12.33" style="stroke-dasharray: 94, 96; stroke-dashoffset: 0px;"></path>
    </g>
</svg>