<svg id="svg-animation" class="block-header__picture finished" xmlns="http://www.w3.org/2000/svg" width="685" height="662" viewBox="0 0 685 662" style="opacity: 1;"><g fill="none" fill-rule="evenodd"><path fill="#F8EC17" d="M510.03 65.24a36 36 0 0 0-5.86-7.6 33.66 33.66 0 0 0-24.7-10.23 33.6 33.6 0 0 0-24.66 10.23 33.6 33.6 0 0 0-10.23 24.67v1.36c-7.4.3-13.77 3.11-19.1 8.45a27.72 27.72 0 0 0-8.45 20.37c0 7.97 2.82 14.77 8.45 20.42a27.77 27.77 0 0 0 19.67 8.45h.92l.7-.03 86.53.03h.13c7.96 0 14.76-2.82 20.4-8.45a27.84 27.84 0 0 0 8.42-20.42 27.7 27.7 0 0 0-8.43-20.37 27.71 27.71 0 0 0-16.2-8.2c.42-1.54.63-3.18.63-4.9a16.79 16.79 0 0 0-5.07-12.35 16.9 16.9 0 0 0-12.38-5.1 16.65 16.65 0 0 0-10.77 3.67" style="stroke-dasharray: 402, 404; stroke-dashoffset: 0px;"></path><path stroke="#045462" stroke-linecap="round" stroke-linejoin="round" stroke-width="5.5" d="M428.8 94.77c-7.3.3-13.56 3.08-18.8 8.34a27.24 27.24 0 0 0-8.3 20.03 27.4 27.4 0 0 0 8.3 20.1 27.42 27.42 0 0 0 19.38 8.34H430.28l.69-.04 85.18.04h.14c7.84 0 14.53-2.79 20.07-8.34a27.4 27.4 0 0 0 8.3-20.1c0-7.83-2.76-14.5-8.3-20.03a27.26 27.26 0 0 0-15.96-8.09c.43-1.52.63-3.13.62-4.83.02-4.75-1.64-8.8-4.98-12.17a16.66 16.66 0 0 0-12.2-5.02 16.4 16.4 0 0 0-10.61 3.61 35.32 35.32 0 0 0-5.74-7.47 33.17 33.17 0 0 0-24.33-10.07 33.09 33.09 0 0 0-24.29 10.07 33.1 33.1 0 0 0-10.07 24.3v1.33z" style="stroke-dasharray: 395, 397; stroke-dashoffset: 0px;"></path><path stroke="#045462" stroke-linecap="round" stroke-linejoin="round" stroke-width="2" d="M505.68 57.7a83.2 83.2 0 0 0-1.44-5.05 29.03 29.03 0 0 0-11.48-14.47c-5.23-3.5-11.94-5.93-20.14-7.3l-1.63-.25a277.03 277.03 0 0 0-38.44-2.78c-12.76.03-25.57.95-38.44 2.78l-1.62.25c-8.2 1.37-14.91 3.8-20.14 7.3a28.96 28.96 0 0 0-11.44 14.47 81.86 81.86 0 0 0 0 50.86c2.17 5.99 5.99 10.81 11.44 14.47 4.08 2.73 9.06 4.83 14.94 6.28l-10.97 32.12 14.73-14.11" style="stroke-dasharray: 308, 310; stroke-dashoffset: 0px;"></path><path class="svg-layer-last" stroke="#F8EC17" stroke-linecap="round" stroke-linejoin="round" stroke-width="3" d="M524.72 41.23c-.57-2.24-1.23-4.48-1.96-6.72-2.99-7.99-8.2-14.4-15.64-19.27-7.12-4.65-16.26-7.89-27.43-9.7l-2.21-.34a386.05 386.05 0 0 0-52.36-3.7 385.96 385.96 0 0 0-52.35 3.7l-2.22.33c-11.17 1.82-20.31 5.06-27.43 9.71-7.42 4.86-12.62 11.28-15.58 19.27a106.66 106.66 0 0 0 0 67.7c2.96 7.98 8.16 14.4 15.58 19.26 5.55 3.64 12.34 6.43 20.35 8.36l-14.94 42.76" style="stroke-dasharray: 388, 390; stroke-dashoffset: 0px;"></path><path stroke="#045462" stroke-linecap="round" stroke-linejoin="round" stroke-width="2" d="M473.63 122.63v-5.84h-5.85M473.63 110.94v5.84h5.84M443.89 110.94v5.84h5.84M443.89 122.63v-5.84h-5.85M503.37 110.94v5.84h5.84M503.37 122.63v-5.84h-5.85" style="stroke-dasharray: 71, 73; stroke-dashoffset: 0px;"></path><g><path stroke="#045462" stroke-linecap="round" stroke-linejoin="round" stroke-width="2" d="M312.09 278.91h.57c37.97-.88 67.45-11.2 88.42-30.95 7.94 14.5 22.23 24.27 42.88 29.34.55.14 1.09.2 1.61.17M443.04 429.22a552.91 552.91 0 0 1 12.9 1.39 1797.19 1797.19 0 0 1 18.16 2.76h.06c22.58 3.78 39.87 26.72 51.88 68.82 1.41 5.96.1 10.69-3.93 14.18-4.3 3.2-11.11 5.58-20.46 7.14a825.36 825.36 0 0 1-108.3 10.6l-4.72.07H380.33a55.49 55.49 0 0 0-2.3 0h-8.31l-4.72-.06c-1.57-.05-3.15-.1-4.73-.18" style="stroke-dasharray: 454, 456; stroke-dashoffset: 0px;"></path><path stroke="#045462" stroke-linecap="round" stroke-linejoin="round" stroke-width="5.5" d="M330.39 548.96a577.1 577.1 0 0 1 13.5 1.44 1864.77 1864.77 0 0 1 18.97 2.9h.07c23.6 3.95 41.68 27.98 54.23 72.08 1.48 6.25.12 11.2-4.1 14.85-4.49 3.35-11.62 5.84-21.39 7.48a861.32 861.32 0 0 1-113.22 11.11l-4.95.06h-8.67a60.6 60.6 0 0 0-2.41 0H253.74l-4.94-.06-4.95-.18a861.32 861.32 0 0 1-108.28-10.93c-9.77-1.64-16.9-4.13-21.39-7.48-4.21-3.65-5.58-8.6-4.1-14.85 12.55-44.1 30.63-68.13 54.23-72.08h.07a1613.59 1613.59 0 0 1 18.98-2.9 780.7 780.7 0 0 1 13.5-1.44" style="stroke-dasharray: 592, 594; stroke-dashoffset: 0px;"></path><path fill="#F8EC17" d="M178.84 397.53a14.26 14.26 0 0 1 3.8-3.04l.13-.06c-10.87-65.17 23.64-98.25 103.53-99.22 79.85.97 114.32 34.05 103.4 99.22l.14.06c1.32.7 2.6 1.72 3.8 3.04 3.91 4.36 5.88 10.68 5.9 18.96a49.82 49.82 0 0 1-5.9 23.52 43.69 43.69 0 0 1-3.55 5.77c-3.09 4.24-6.57 7.14-10.47 8.68-.42.18-.84.32-1.26.45-3.9 20.73-11.26 39.33-22.06 55.79-18.4 29.1-40.56 44.04-66.45 44.82h-7.16c-25.89-.78-48.03-15.72-66.44-44.82-10.8-16.46-18.16-35.06-22.07-55.8-.44-.12-.88-.26-1.33-.44-3.87-1.54-7.33-4.44-10.4-8.68a44.22 44.22 0 0 1-3.6-5.77 49.68 49.68 0 0 1-5.78-23.52c-.03-8.28 1.9-14.6 5.77-18.96" style="stroke-dasharray: 780, 782; stroke-dashoffset: 0px;"></path><path class="svg-layer-last" stroke="#F8EC17" stroke-linecap="round" stroke-linejoin="round" stroke-width="7.59" d="M178.84 397.53a14.26 14.26 0 0 1 3.8-3.04l.13-.06c-10.87-65.17 23.64-98.25 103.53-99.22 79.85.97 114.32 34.05 103.4 99.22l.14.06c1.32.7 2.6 1.72 3.8 3.04 3.91 4.36 5.88 10.68 5.9 18.96a49.82 49.82 0 0 1-5.9 23.52 43.69 43.69 0 0 1-3.55 5.77c-3.09 4.24-6.57 7.14-10.47 8.68-.42.18-.84.32-1.26.45-3.9 20.73-11.26 39.33-22.06 55.79-18.4 29.1-40.56 44.04-66.45 44.82h-7.16c-25.89-.78-48.03-15.72-66.44-44.82-10.8-16.46-18.16-35.06-22.07-55.8-.44-.12-.88-.26-1.33-.44-3.87-1.54-7.33-4.44-10.4-8.68a44.22 44.22 0 0 1-3.6-5.77 49.68 49.68 0 0 1-5.78-23.52c-.03-8.28 1.9-14.6 5.77-18.96z" style="stroke-dasharray: 780, 782; stroke-dashoffset: 0px;"></path><path stroke="#045462" stroke-linecap="round" stroke-linejoin="round" stroke-width="5.5" d="M252.5 512.91a15.9 15.9 0 0 0 9.04 2.7 15.9 15.9 0 0 0 11.65-4.9c3.2-3.22 4.8-7.12 4.8-11.7 0-4.54-1.6-8.42-4.8-11.62a15.9 15.9 0 0 0-11.65-4.9 15.9 15.9 0 0 0-11.65 4.9 17.6 17.6 0 0 0-2.26 2.76c-27.59-3.24-54.75-14.2-70.98-32.45" style="stroke-dasharray: 158, 160; stroke-dashoffset: 0px;"></path><path stroke="#045462" stroke-linecap="round" stroke-linejoin="round" stroke-width="5.5" d="M176.03 456.98a14.6 14.6 0 0 1-1.27-.42c-3.67-1.47-6.97-4.22-9.89-8.26a42 42 0 0 1-3.43-5.48 47.23 47.23 0 0 1-5.49-22.36c-.02-7.87 1.81-13.88 5.49-18.02a13.49 13.49 0 0 1 3.62-2.9c.04-.02.08-.03.11-.06-10.33-61.95 22.49-93.4 98.45-94.32 75.93.93 108.7 32.37 98.33 94.32.03.03.07.04.12.07 1.26.67 2.47 1.63 3.62 2.89 3.72 4.14 5.58 10.15 5.6 18.02a47.32 47.32 0 0 1-5.6 22.36 41.25 41.25 0 0 1-3.39 5.48c-2.92 4.04-6.24 6.8-9.94 8.26-.4.17-.8.3-1.2.42-3.72 19.72-10.71 37.4-20.99 53.04-17.5 27.67-38.56 41.87-63.17 42.61h-6.81c-24.62-.74-45.68-14.94-63.18-42.6a137.55 137.55 0 0 1-12.53-23.94" style="stroke-dasharray: 712, 714; stroke-dashoffset: 0px;"></path><path stroke="#045462" stroke-linecap="round" stroke-linejoin="round" stroke-width="5.5" d="M193.4 392.27h.6c39.74-.93 70.6-11.8 92.55-32.63 8.3 15.27 23.27 25.58 44.88 30.93.58.15 1.14.2 1.69.18" style="stroke-dasharray: 159, 161; stroke-dashoffset: 0px;"></path><path fill="#F8EC17" d="M624.02 249.63a1.54 1.54 0 0 0-1.26-1.05l-20.32-2.75-8.78-18.48a1.54 1.54 0 0 0-2.78 0l-8.8 18.48-20.33 2.75a1.54 1.54 0 0 0-.86 2.64l14.77 14.14-3.82 20.19a1.54 1.54 0 0 0 2.24 1.64l18.18-9.75 18.17 9.75a1.54 1.54 0 0 0 2.25-1.64l-3.79-20.2 14.73-14.13c.43-.4.58-1.03.4-1.59" style="stroke-dasharray: 223, 225; stroke-dashoffset: 0px;"></path><path stroke="#045462" stroke-linecap="round" stroke-linejoin="round" stroke-width="2" d="M588.96 244.28l5.14 10.81 11.89 1.62-8.62 8.27 2.2 11.81-10.6-5.7h-.03l-10.62 5.7 2.24-11.8-8.64-8.28 11.89-1.62 5.15-10.8zm-5.87 55.02c-7.22-1.6-11.5-5.15-12.83-10.62-.31-1.3-.72-2.6-1.23-3.9-1.94-5.02-5.28-10.04-10.02-15.09-5.95-6.34-8.92-12.36-8.89-18.06 0-1.52-.14-2.8-.44-3.87-.78-2.4-2.46-3.53-5.04-3.4-1.2.12-2.46.58-3.77 1.38l-.81.54c-4.22 3.08-6.14 7.56-5.77 13.45.4 6.42 2.13 11.96 5.2 16.62l.03.08.1.15c1.24 1.93 1.71 3.78 1.42 5.54-.28 1.7-1.52 2.58-3.73 2.66h-20.37c-2.73 0-5.06.96-6.99 2.88a9.55 9.55 0 0 0-2.88 6.99 9.49 9.49 0 0 0 3.35 7.4 9.47 9.47 0 0 0-2.3 6.33c0 2.72.97 5.05 2.9 6.96.46.48.95.9 1.47 1.25a9.45 9.45 0 0 0-1.65 5.5 9.5 9.5 0 0 0 2.87 6.99c.83.82 1.74 1.47 2.73 1.94a9.6 9.6 0 0 0-1.23 4.81 9.5 9.5 0 0 0 2.88 6.97 9.5 9.5 0 0 0 6.97 2.9h12.96l7.64-.15h1c1.56-.05 3.07-.1 4.54-.18 5.38-.27 10.05-.9 14.02-1.9a90.55 90.55 0 0 1 9.2-1.87c1.3-.19 2.57-.3 3.83-.36l1.27-.02c.4 0 .82 0 1.23.02h2.34V299.3zm21.92 46.3H592.6a.97.97 0 0 1-.71-.3c-.2-.2-.31-.45-.31-.74v-48.09c0-.28.1-.51.3-.7.2-.21.44-.32.72-.32H605v50.15zM161.34 465.8c-3.76 2.98-7.65 5.85-11.68 8.59-19.79-12.92-36.49-29.75-50.1-50.47l-.1-.11c-1.78.24-3.5.46-5.18.7-.18 0-.36.03-.54.05-18.5 2.37-31.83 4.2-39.96 5.5h-.1c-22.58 3.78-39.81 26.9-51.71 69.35a.48.48 0 0 1-.06.11c-2.52 10.36.18 16.53 8.12 18.52l2.72.53a828.78 828.78 0 0 0 136.91 11.47c9.13 0 18.26-.15 27.4-.46M255.2 283.37v-.05A116.63 116.63 0 0 0 233 234.4v.06a111.13 111.13 0 0 0-15.9-16.7v-.06a102.8 102.8 0 0 0-21.23-13.92h.05a94.7 94.7 0 0 0-16.33-6.3l-.1-.05a107.07 107.07 0 0 0-19.42-3.68h-.16l-1.4-.11c-2.94-.22-5.9-.33-8.85-.32-3.4-.01-6.8.13-10.19.43h-.21a105.6 105.6 0 0 0-19.53 3.73 94.81 94.81 0 0 0-16.33 6.3h.05a102.73 102.73 0 0 0-21.23 13.92l-.05.06a110.4 110.4 0 0 0-15.85 16.64v.06a116.6 116.6 0 0 0-22.14 48.87l-.06.05a114.59 114.59 0 0 0-1.92 16.92 121.1 121.1 0 0 0-.05 4.75v.1c0 2.98.09 5.95.26 8.91a225.2 225.2 0 0 1-2.08 36.4c-2.65 18.14-7.79 33.76-15.42 46.84a122.05 122.05 0 0 0 26.04 6.4 90.69 90.69 0 0 0 19.05.43 74.27 74.27 0 0 0 21.5-5.28M284.25 280.58c-7.1-55.66 24.55-83.92 94.93-84.77 72.59.88 103.92 30.95 94 90.2l.12.05c1.2.64 2.36 1.57 3.46 2.77 3.55 3.96 5.34 9.7 5.36 17.23a45.27 45.27 0 0 1-5.36 21.38 39.43 39.43 0 0 1-3.24 5.25c-2.8 3.85-5.97 6.49-9.5 7.9-.4.15-.78.28-1.16.4-3.55 18.84-10.23 35.75-20.05 50.71-9.82 15.53-20.81 26.62-32.97 33.28" style="stroke-dasharray: 1939, 1941; stroke-dashoffset: 0px;"></path><path stroke="#045462" stroke-linecap="round" stroke-linejoin="round" stroke-width="2" d="M144.46 421.1c-20.17-2.38-35.58-18.82-46.24-49.31l-7.57-27.43-.22-.16a9.5 9.5 0 0 1-5.92.75c-.43-.09-.86-.2-1.28-.32-3.14-.87-5.87-3-8.16-6.4a22.68 22.68 0 0 1-3.95-13.03c.01-4.82 1.33-8.71 3.95-11.68 2.6-2.92 5.75-4.06 9.44-3.41h1.07c24.07-.01 44.6-7.36 61.63-22.04 8.36-7.2 14.68-15.13 18.94-23.8 5.72 15.97 15.39 28.19 29 36.66" style="stroke-dasharray: 302, 304; stroke-dashoffset: 0px;"></path><path class="svg-layer-last" stroke="#F8EC17" stroke-linecap="round" stroke-width="3" d="M623.28 396.23a117.11 117.11 0 0 0 59.48-102c0-9.87-1.22-19.45-3.52-28.6" style="stroke-dasharray: 153, 155; stroke-dashoffset: 0px;"></path><path class="svg-layer-last" stroke="#F8EC17" stroke-linecap="round" stroke-width="3" d="M493.13 363.9a100.21 100.21 0 0 0 72.1 30.48c55.52 0 100.52-45 100.52-100.52a100.4 100.4 0 0 0-43.88-83.05" style="stroke-dasharray: 337, 339; stroke-dashoffset: 0px;"></path><path stroke="#045462" stroke-linecap="round" stroke-linejoin="round" stroke-width="2" d="M560.5 100.16a44.5 44.5 0 0 1 12.75 5.65 28.95 28.95 0 0 1 11.44 14.48 81.88 81.88 0 0 1 0 50.85 28.95 28.95 0 0 1-11.44 14.48c-4.08 2.73-9.06 4.83-14.95 6.28l10.98 32.12-30.61-29.3a276.89 276.89 0 0 1-64.07-1.52l-1.62-.26c-8.2-1.38-14.92-3.82-20.14-7.32a29.04 29.04 0 0 1-11.48-14.48c-.41-1.28-.8-2.57-1.16-3.86" style="stroke-dasharray: 307, 309; stroke-dashoffset: 0px;"></path></g></g></svg>